<?xml version="1.0" standalone="no"?>
<!DOCTYPE svg PUBLIC "-//W3C//DTD SVG 20010904//EN"
 "http://www.w3.org/TR/2001/REC-SVG-20010904/DTD/svg10.dtd">
<svg version="1.0" xmlns="http://www.w3.org/2000/svg"
 width="280.000000pt" height="60.000000pt" viewBox="0 0 280.000000 60.000000"
 preserveAspectRatio="xMidYMid meet">

<g transform="translate(0.000000,60.000000) scale(0.100000,-0.100000)"
fill="#000000" stroke="none">
<path d="M602 533 c70 -2 187 -2 260 0 73 1 16 3 -127 3 -143 0 -203 -2 -133
-3z"/>
<path d="M490 305 l0 -215 245 0 245 0 0 215 0 215 -245 0 -245 0 0 -215z
m373 109 c3 -3 -13 -29 -36 -57 -23 -29 -57 -76 -76 -104 -18 -29 -36 -53 -40
-53 -3 0 -16 3 -28 6 -37 10 -38 29 -8 162 7 28 39 29 58 2 13 -19 15 -18 47
15 31 32 67 44 83 29z"/>
<path d="M1160 478 c0 -8 7 -36 16 -62 14 -41 19 -47 42 -44 21 2 28 12 43 56
15 45 16 54 4 58 -22 9 -32 -3 -40 -43 l-8 -38 -11 40 c-11 38 -46 63 -46 33z"/>
<path d="M1290 431 c0 -55 2 -61 20 -61 19 0 21 5 18 57 -2 46 -7 59 -20 61
-16 3 -18 -5 -18 -57z"/>
<path d="M1347 483 c-13 -12 -7 -33 8 -33 11 0 15 -11 15 -40 0 -33 3 -40 20
-40 17 0 20 7 20 40 0 29 4 40 15 40 8 0 15 9 15 20 0 17 -7 20 -43 20 -24 0
-47 -3 -50 -7z"/>
<path d="M1485 478 c-15 -42 -35 -101 -35 -104 0 -9 32 -3 51 9 17 10 23 10
26 0 3 -7 14 -13 25 -13 17 0 19 4 13 27 -15 61 -34 93 -55 93 -11 0 -23 -6
-25 -12z m35 -54 c0 -8 -5 -12 -10 -9 -6 4 -8 11 -5 16 9 14 15 11 15 -7z"/>
<path d="M1587 483 c-4 -3 -7 -30 -7 -60 l0 -53 40 0 c33 0 40 3 40 20 0 13
-7 20 -20 20 -17 0 -20 7 -20 40 0 38 -14 52 -33 33z"/>
<path d="M1700 471 c0 -12 7 -21 15 -21 11 0 15 -11 15 -40 0 -33 3 -40 20
-40 17 0 20 7 20 40 0 30 4 40 16 40 9 0 14 7 12 18 -2 13 -15 18 -51 20 -42
3 -47 1 -47 -17z"/>
<path d="M1810 430 l0 -60 40 0 c29 0 40 4 40 15 0 9 -10 15 -22 16 -17 1 -19
2 -5 6 9 2 17 11 17 18 0 7 -8 16 -17 18 -14 4 -12 5 5 6 15 1 22 7 22 21 0
17 -7 20 -40 20 l-40 0 0 -60z"/>
<path d="M1920 470 c-24 -24 -25 -48 -4 -78 21 -31 77 -30 99 0 19 28 4 36
-32 17 -20 -11 -26 -11 -33 1 -16 25 -5 35 34 32 40 -3 45 6 18 31 -25 23 -58
21 -82 -3z"/>
<path d="M2040 430 c0 -53 2 -60 20 -60 13 0 20 7 20 20 0 11 7 20 15 20 8 0
15 -9 15 -20 0 -13 7 -20 20 -20 18 0 20 7 20 60 0 53 -2 60 -20 60 -13 0 -20
-7 -20 -20 0 -11 -6 -20 -14 -20 -7 0 -16 9 -19 20 -3 11 -12 20 -21 20 -13 0
-16 -12 -16 -60z"/>
<path d="M1177 263 c-4 -3 -7 -30 -7 -60 0 -46 3 -53 20 -53 15 0 20 7 21 28
l1 27 11 -27 c14 -36 42 -36 55 0 l10 27 1 -27 c1 -21 6 -28 21 -28 19 0 21 5
18 58 -3 51 -6 57 -26 60 -18 3 -25 -3 -33 -27 -14 -39 -22 -39 -36 -1 -11 28
-39 40 -56 23z"/>
<path d="M1340 265 c0 -3 9 -23 20 -45 11 -22 20 -46 20 -55 0 -8 9 -15 20
-15 14 0 20 7 20 23 1 12 7 33 15 47 8 14 14 31 15 38 0 20 -29 13 -41 -10
l-12 -23 -10 23 c-9 19 -47 33 -47 17z"/>
<path d="M1495 258 c-15 -42 -35 -101 -35 -104 0 -9 32 -3 51 8 17 10 23 11
26 1 3 -7 14 -13 25 -13 17 0 19 4 13 27 -15 61 -34 93 -55 93 -11 0 -23 -6
-25 -12z m35 -54 c0 -8 -5 -12 -10 -9 -6 4 -8 11 -5 16 9 14 15 11 15 -7z"/>
<path d="M1597 263 c-4 -3 -7 -30 -7 -60 0 -46 3 -53 20 -53 16 0 20 7 21 33
l0 32 16 -32 c12 -23 24 -33 40 -33 22 0 23 4 23 61 0 52 -2 60 -17 57 -9 -2
-20 -14 -24 -28 l-6 -25 -13 28 c-12 25 -38 35 -53 20z"/>
<path d="M1730 210 c0 -45 3 -60 14 -60 8 0 16 12 18 28 l4 27 12 -27 c15 -36
39 -36 54 0 l12 27 4 -27 c2 -16 10 -28 18 -28 11 0 14 15 14 61 0 57 -1 60
-22 57 -15 -2 -29 -16 -39 -37 l-16 -35 -12 37 c-10 29 -18 37 -37 37 -23 0
-24 -3 -24 -60z"/>
<path d="M1933 258 c-6 -7 -17 -34 -26 -60 l-16 -48 24 0 c13 0 25 6 28 13 3
10 9 10 26 0 11 -7 28 -13 37 -13 16 0 16 2 -11 80 -13 37 -44 51 -62 28z m24
-60 c-3 -7 -5 -2 -5 12 0 14 2 19 5 13 2 -7 2 -19 0 -25z"/>
<path d="M2030 210 c0 -53 2 -60 20 -60 14 0 20 7 21 23 l0 22 16 -22 c8 -13
24 -23 34 -23 22 0 24 11 7 28 -8 8 -8 15 1 26 19 23 4 53 -31 60 -66 13 -68
12 -68 -54z m62 15 c0 -5 -5 -11 -11 -13 -6 -2 -11 4 -11 13 0 9 5 15 11 13 6
-2 11 -8 11 -13z"/>
<path d="M602 73 c70 -2 187 -2 260 0 73 1 16 3 -127 3 -143 0 -203 -2 -133
-3z"/>
</g>
</svg>
