<svg width="185" height="20" viewBox="0 0 185 20" fill="none" xmlns="http://www.w3.org/2000/svg">
<path d="M1.38135 1.33838V10.0461C1.38135 11.523 2.18301 12.8799 3.47493 13.5968L12.5584 18.6276L12.617 18.6615L21.7437 13.5999C23.0356 12.883 23.8373 11.5261 23.8373 10.0522V1.33838H1.38135ZM15.9994 11.6553C15.3211 12.0307 14.5595 12.2276 13.7856 12.2276L5.36193 12.203L10.0856 9.5753C10.5419 9.31992 11.0538 9.18761 11.5779 9.18453L20.4949 9.15684L16.0025 11.6584L15.9994 11.6553ZM15.8699 7.35376C15.4136 7.60915 14.9018 7.74146 14.3776 7.74453L5.4606 7.77223L9.95301 5.27069C10.6313 4.8953 11.3929 4.69838 12.1668 4.69838L20.5905 4.72299L15.8668 7.35069L15.8699 7.35376Z" fill="#2006F7"/>
<path d="M178.463 7.69236H164.151C163.497 7.69236 162.967 7.16313 162.967 6.51083C162.967 5.85852 163.497 5.32929 164.151 5.32929H182.774V1.36621H164.151C161.308 1.36621 158.995 3.6739 158.995 6.51083C158.995 9.34775 161.308 11.6554 164.151 11.6554H178.463C179.117 11.6554 179.647 12.1939 179.647 12.8431C179.647 13.4954 179.117 14.0031 178.463 14.0031H159.8V17.9662H178.463C181.306 17.9662 183.619 15.6831 183.619 12.8462C183.619 10.0093 181.306 7.69544 178.463 7.69544V7.69236Z" fill="#001A47"/>
<path d="M70.559 1.37549H62.8044C58.2133 1.37549 54.4763 5.10472 54.4763 9.68626C54.4763 14.2678 58.2133 17.997 62.8044 17.997H70.559C75.1501 17.997 78.8871 14.2678 78.8871 9.68626C78.8871 5.10472 75.1501 1.37549 70.559 1.37549ZM70.559 14.0309H62.8044C60.4056 14.0309 58.4538 12.0832 58.4538 9.68933C58.4538 7.29549 60.4056 5.3478 62.8044 5.3478H70.559C72.9578 5.3478 74.9096 7.29549 74.9096 9.68933C74.9096 12.0832 72.9578 14.0309 70.559 14.0309Z" fill="#001A47"/>
<path d="M148.993 1.37549H141.238C136.647 1.37549 132.91 5.10472 132.91 9.68626C132.91 14.2678 136.647 17.997 141.238 17.997H148.993C153.584 17.997 157.321 14.2678 157.321 9.68626C157.321 5.10472 153.584 1.37549 148.993 1.37549ZM148.993 14.0309H141.238C138.839 14.0309 136.888 12.0832 136.888 9.68933C136.888 7.29549 138.839 5.3478 141.238 5.3478H148.993C151.392 5.3478 153.343 7.29549 153.343 9.68933C153.343 12.0832 151.392 14.0309 148.993 14.0309Z" fill="#001A47"/>
<path d="M126.577 1.3938V7.67995H111.043V1.3938H107.066V17.9753H111.043V11.6492H126.577V17.9753H130.555V1.3938H126.577Z" fill="#001A47"/>
<path d="M47.8256 7.69236H33.5128C32.8591 7.69236 32.3288 7.16313 32.3288 6.51083C32.3288 5.85852 32.8591 5.32929 33.5128 5.32929H52.1361V1.36621H33.5128C30.6699 1.36621 28.3574 3.6739 28.3574 6.51083C28.3574 9.34775 30.6699 11.6554 33.5128 11.6554H47.8256C48.4793 11.6554 49.0096 12.1939 49.0096 12.8431C49.0096 13.4924 48.4793 14.0031 47.8256 14.0031H29.1622V17.9662H47.8256C50.6684 17.9662 52.9809 15.6831 52.9809 12.8462C52.9809 10.0093 50.6684 7.69544 47.8256 7.69544V7.69236Z" fill="#001A47"/>
<path d="M98.5618 1.39395H85.1524H83.5491H81.1749V17.9755H85.1524V13.5324H98.5618C101.917 13.5324 104.645 10.8093 104.645 7.46164C104.645 4.11395 101.917 1.39087 98.5618 1.39087V1.39395ZM98.5618 9.56318H85.1524V5.3601H98.5618C99.7243 5.3601 100.668 6.30164 100.668 7.46164C100.668 8.62164 99.7243 9.56318 98.5618 9.56318Z" fill="#001A47"/>
</svg>
