<svg width="1200" height="750" viewBox="0 0 1200 750" fill="none" xmlns="http://www.w3.org/2000/svg">
  <defs>
    <linearGradient id="bg" x1="0" y1="0" x2="1200" y2="750" gradientUnits="userSpaceOnUse">
      <stop stop-color="#0A1828"/>
      <stop offset="1" stop-color="#13263A"/>
    </linearGradient>
    <linearGradient id="card" x1="240" y1="180" x2="960" y2="610" gradientUnits="userSpaceOnUse">
      <stop stop-color="#10273D"/>
      <stop offset="1" stop-color="#0F1E32"/>
    </linearGradient>
    <linearGradient id="accent" x1="0" y1="0" x2="1" y2="1">
      <stop stop-color="#2FD3C6"/>
      <stop offset="1" stop-color="#67E9DF"/>
    </linearGradient>
    <linearGradient id="profit" x1="0" y1="0" x2="0" y2="1">
      <stop stop-color="#37E5B4"/>
      <stop offset="1" stop-color="#1BA57D"/>
    </linearGradient>
  </defs>

  <rect width="1200" height="750" rx="36" fill="url(#bg)"/>

  <circle cx="122" cy="95" r="155" fill="#2FD3C6" fill-opacity="0.12"/>
  <circle cx="1080" cy="642" r="190" fill="#2FD3C6" fill-opacity="0.1"/>
  <circle cx="1030" cy="118" r="120" fill="#FF8F5C" fill-opacity="0.1"/>

  <rect x="190" y="120" width="820" height="510" rx="28" fill="url(#card)" stroke="#2A425C" stroke-width="2"/>
  <rect x="230" y="162" width="740" height="64" rx="14" fill="#0D1E31"/>
  <circle cx="262" cy="194" r="8" fill="#FF5F56"/>
  <circle cx="289" cy="194" r="8" fill="#FFBD2E"/>
  <circle cx="316" cy="194" r="8" fill="#27C93F"/>

  <text x="360" y="204" fill="#D6E7FA" font-family="Arial, sans-serif" font-size="26" font-weight="700">MoneyPilot Dashboard</text>

  <rect x="230" y="254" width="348" height="336" rx="18" fill="#0D2135" stroke="#294968"/>
  <rect x="602" y="254" width="368" height="158" rx="18" fill="#0D2135" stroke="#294968"/>
  <rect x="602" y="432" width="368" height="158" rx="18" fill="#0D2135" stroke="#294968"/>

  <text x="260" y="294" fill="#9EC3E6" font-family="Arial, sans-serif" font-size="18">Monthly Cash Flow</text>
  <text x="628" y="294" fill="#9EC3E6" font-family="Arial, sans-serif" font-size="18">Budget Health</text>
  <text x="628" y="472" fill="#9EC3E6" font-family="Arial, sans-serif" font-size="18">Top Categories</text>

  <rect x="260" y="522" width="34" height="42" rx="6" fill="#1A3650"/>
  <rect x="308" y="496" width="34" height="68" rx="6" fill="#1E4968"/>
  <rect x="356" y="462" width="34" height="102" rx="6" fill="url(#accent)"/>
  <rect x="404" y="486" width="34" height="78" rx="6" fill="#2A5D7A"/>
  <rect x="452" y="440" width="34" height="124" rx="6" fill="url(#profit)"/>
  <rect x="500" y="470" width="34" height="94" rx="6" fill="#2A5D7A"/>

  <path d="M262 378C301 340 340 392 377 355C422 310 463 322 515 286" stroke="#2FD3C6" stroke-width="5" stroke-linecap="round"/>
  <circle cx="262" cy="378" r="6" fill="#2FD3C6"/>
  <circle cx="377" cy="355" r="6" fill="#2FD3C6"/>
  <circle cx="515" cy="286" r="6" fill="#2FD3C6"/>

  <rect x="630" y="322" width="72" height="56" rx="12" fill="#173754"/>
  <rect x="716" y="304" width="72" height="74" rx="12" fill="#1F5271"/>
  <rect x="802" y="286" width="72" height="92" rx="12" fill="url(#accent)"/>
  <rect x="888" y="336" width="52" height="42" rx="12" fill="#173754"/>

  <rect x="632" y="500" width="146" height="18" rx="9" fill="#204260"/>
  <rect x="632" y="528" width="226" height="18" rx="9" fill="#2FD3C6"/>
  <rect x="632" y="556" width="178" height="18" rx="9" fill="#335D7D"/>

  <text x="820" y="522" fill="#D6E7FA" font-family="Arial, sans-serif" font-size="16">Infrastructure</text>
  <text x="886" y="550" fill="#D6E7FA" font-family="Arial, sans-serif" font-size="16">Operations</text>
  <text x="830" y="578" fill="#D6E7FA" font-family="Arial, sans-serif" font-size="16">Licensing</text>

  <text x="228" y="685" fill="#87A8C8" font-family="Arial, sans-serif" font-size="20">Finance tracking, budget control, and analytics for daily operations</text>
</svg>
